<svg xmlns="http://www.w3.org/2000/svg" viewBox="0 0 120 120" fill="none">
  <circle cx="60" cy="60" r="58" fill="#FFF5F8"/>
  <rect x="25" y="40" width="30" height="40" rx="4" fill="#e6005c"/>
  <rect x="65" y="40" width="30" height="40" rx="4" fill="#ff3385"/>
  <rect x="30" y="45" width="20" height="3" rx="1" fill="#fff" opacity="0.5"/>
  <rect x="30" y="52" width="15" height="3" rx="1" fill="#fff" opacity="0.5"/>
  <rect x="30" y="59" width="18" height="3" rx="1" fill="#fff" opacity="0.5"/>
  <rect x="70" y="45" width="20" height="3" rx="1" fill="#fff" opacity="0.5"/>
  <rect x="70" y="52" width="15" height="3" rx="1" fill="#fff" opacity="0.5"/>
  <rect x="70" y="59" width="18" height="3" rx="1" fill="#fff" opacity="0.5"/>
  <circle cx="60" cy="60" r="15" fill="#00c853"/>
  <path d="M52 60 L60 60 M60 52 L60 68 M55 55 L60 60 L55 65 M65 55 L60 60 L65 65" stroke="#fff" stroke-width="2" stroke-linecap="round"/>
</svg>

